# xmcd CD database file
#
# Track frame offsets:
#	150
#	11055
#	23405
#	29145
#	36042
#	43297
#	53792
#	62470
#	68137
#	76377
#	83590
#	101300
#
# Disc length: 1491 seconds
#
# Revision: 0
# Processed by: cddbd v1.4PL0 Copyright (c) Steve Scherf et al.
# Submitted via: CDex 1.50Beta7
#
DISCID=8d05d10c
DTITLE=Buck Owens - Buckaroo  CD 3 of 3
DYEAR=1999
DGENRE=Country
TTITLE0=Down On The Corner Of Love
TTITLE1=The House Down The Block
TTITLE2=Blue Love
TTITLE3=You're Fer Me
TTITLE4=Please Don't Take Her From Me
TTITLE5=It Don't Show On Me
TTITLE6=Why Don't Mommy Stay With Daddy And Me
TTITLE7=Three Dimension Love
TTITLE8=Honeysuckle
TTITLE9=That Ain't Right Baby
TTITLE10=Leavin' Dirty Tracks
TTITLE11=Right After The Dance
EXTD=YEAR: 1999
EXTT0=
EXTT1=
EXTT2=
EXTT3=
EXTT4=
EXTT5=
EXTT6=
EXTT7=
EXTT8=
EXTT9=
EXTT10=
EXTT11=
PLAYORDER=
